<svg xmlns="http://www.w3.org/2000/svg" xmlns:xlink="http://www.w3.org/1999/xlink" width="586" height="589" fill="none"><g stroke-width="5"><path d="M376.5 67c-18.8 16.4-32.5 48.833-37 63-1.833 2.333.4 14.4 8 40 9.5 32 38 92.5 38 172.5s53.5 181 67.5 199 21 4.5 24.5 0S484 515 499 506s14 2 25 0c8.8-1.6 10-34 9.5-50 5.667-5.5 19.1-21.1 27.5-39.5 10.5-23 16.5-61.5 21-82.5s-4-58.5-4.5-73.5-25-49.5-27-53-4.5-5-8-22c-2.8-13.6-13.5-30-18.5-36.5-10-12-30.7-37.2-33.5-42s-4.5-17-5-22.5c-1.833-7-6.5-23.8-10.5-35-5-14-9.5-12-23-19s-11.5-3-26.5 0-25.5 16-49 36.5z" fill="url(#A)" stroke="#b7b7b7" stroke-opacity=".55"/><path d="M351 153c12.4 24.4 21.833 58.5 25 72.5 3.5 0 15.5 97.5 17.5 125.5s8.5 48 12 70 28.5 71 40.5 96 31.5 30.5 35.5 44.5-2.5 19-20 24-79-26-110.5-38-60-33.5-91-49.5-57.5-44-71.5-53-45.5-48-61.5-66-21-20-43.5-28c-18-6.4-33.167-2.667-38.5 0-6.5-.833-17.4-6.3-9-21.5 10.5-19 24-29 24-43s-30-8.5-38.5-11S3 260.5 3 253c0-6 12.333-8.833 18.5-9.5l32-13.5c14.667-10 44.1-32.6 44.5-43 .5-13-7-10.5-19.5-22.5S69 143 72.5 135s35-9 54.5-9 51-4.5 65-22.5S207 40 207.5 34 219 9 230 9c8.8 0 17.333 20.667 20.5 31 4.833 11.5 16.3 34.8 23.5 36 9 1.5 10.5-.5 12.5-10s50.5-32.5 59-36 9.5-.5 9.5 10-10.5 25.5-18 52-1.5 30.5 14 61z" fill="url(#B)" stroke="#b1b1b1"/></g><path d="M16.5 206c.4 6.8 32.833 13.833 49 16.5 6.167-5.5 20.4-18 28-24s5.833-15.167 4-19c-7.667-6.333-23.6-20-26-24-3-5-.5-15 0-21s22.5-8 31.5-5.5 63-9.5 70.5-11c6-1.2 19.167-17.833 25-26l8.5-47-12-28c-1.5-3.5-7 0-10.5 3.5s-2 19-4.5 28-16.5 13-24.5 14-18-4.5-29-5.5-7.5 4-6.5 12-12 35.5-17 43-34 9-49.5 11-10 7-13 11.5 16.5 14 21 28.5-18 24.5-21 25-24.5 9.5-24 18z" fill="url(#C)" stroke="#b1b1b1" stroke-width="4"/><g stroke-width="3.5"><path d="M41.5 164c7.2 5.6 7 16.667 6 21.5 2.667-2 8.5-6.1 10.5-6.5 2.5-.5 2.5-9.5 3.5-15S52 152.5 52 149.5c0-2.4 4-18.667 6-26.5 7.5-1 24.5-3 32.5-3 10 0 19-20.5 21-22s6-22.5 5.5-28c-.4-4.4 3.833-11.167 6-14 6.667 1.833 21.1 5.9 25.5 7.5 5.5 2 21.5-4 26-5.5 3.6-1.2 6.167-9.5 7-13.5-4.5-3.333-13.6-10.6-14-13-.5-3-8-14-10.5-14s-8.5 12-8.5 14S142.5 43 133 48s-24 0-26.5 0-6.5 4-6.5 13.5-5.5 15.5-9.5 25-26 11-35 13-8 5.5-8 12.5 4.5 9 4.5 15.5c0 5.2-13.667 11.833-20.5 14.5-3.333 1.167-9.8 5.2-9 12 1 8.5 10 3 19 10z" fill="url(#D)" stroke="#b1b1b1"/><path d="M34 104.5c-.8 2.8 8.667 9.833 13.5 13v-15c0-2 19.5-5.5 31-6.5s16-15 17.5-17.5c1.2-2 4.833-19.5 6.5-28 2-1.333 6.4-3.6 8-2 2 2 22 0 25 0 2.4 0 8.333-9.333 11-14-1.833-3.5-5.9-11-7.5-13-2-2.5-2.5 0-3.5 4s-8.5 9-18 9-15.5-2-21.5 0S86 54 83.5 60s-17 3.5-20.5 3.5S52.5 69 52.5 74s-1 17.5-2.5 20.5-15 6.5-16 10z" fill="url(#E)" stroke="#b1b1b1"/></g><g stroke-width="3"><path d="M45 66.5c-1.6 1.2 4.333 4.167 7.5 5.5 0-3 8-9 16-8 6.4.8 12.333-2.667 14.5-4.5 1.667-3.333 5.1-11.1 5.5-15.5s7.5-8.833 11-10.5H126c0-1-.9-3.5-4.5-5.5-4.5-2.5 1-7 0-9.5s-8 4.5-10.5 7h0c-2.5 2.5-11.5-5-14.5-7s-1 2.5-2 7-7.5 5-11.5 5-8.5-1-10 0 0 5 0 11.5-5 2.5-9 2c-3.2-.4-6 2.5-7 4 .333 2.667.8 8.7 0 11.5-1 3.5-10 5.5-12 7z" fill="url(#F)" stroke="#b1b1b1"/><path d="M61 35.5c-1.6 9.2 3.333 9.5 6 8.5 1.333 0 4.5-.3 6.5-1.5C76 41 73 31 73.5 31s7.5-.5 10 0 8 0 10-3 1.5-7.5-2-9-9-3-13.5-5-7-8-11-11-1.5 2-1.5 5S63 24 61 35.5z" fill="url(#G)" stroke="#b1b1b1"/></g><defs><linearGradient id="A" x1="317.446" y1="107.881" x2="741.493" y2="299.768" xlink:href="#H"><stop stop-color="#f3f3f3"/><stop offset="1" stop-color="#cdcdcd" stop-opacity="0"/></linearGradient><linearGradient id="B" x1="-37" y1="98.5" x2="570" y2="586" xlink:href="#H"><stop stop-color="#cdcdcd"/><stop offset="1" stop-color="#cdcdcd" stop-opacity="0"/></linearGradient><linearGradient id="C" x1=".604" y1="47.649" x2="222.03" y2="244.599" xlink:href="#H"><stop stop-color="#cdcdcd"/><stop offset="1" stop-color="#cdcdcd" stop-opacity="0"/></linearGradient><linearGradient id="D" x1="9.166" y1="43.557" x2="189.439" y2="208.479" xlink:href="#H"><stop stop-color="#cdcdcd"/><stop offset="1" stop-color="#cdcdcd" stop-opacity="0"/></linearGradient><linearGradient id="E" x1="24.566" y1="35.544" x2="128.387" y2="151.935" xlink:href="#H"><stop stop-color="#cdcdcd"/><stop offset="1" stop-color="#cdcdcd" stop-opacity="0"/></linearGradient><linearGradient id="F" x1="37.954" y1="26.349" x2="92.318" y2="105.357" xlink:href="#H"><stop stop-color="#cdcdcd"/><stop offset="1" stop-color="#cdcdcd" stop-opacity="0"/></linearGradient><linearGradient id="G" x1="57.854" y1="8.638" x2="102.012" y2="42.902" xlink:href="#H"><stop stop-color="#cdcdcd"/><stop offset="1" stop-color="#cdcdcd" stop-opacity="0"/></linearGradient><linearGradient id="H" gradientUnits="userSpaceOnUse"/></defs></svg>