<svg xmlns="http://www.w3.org/2000/svg" width="295" height="246" fill="none" viewBox="0 0 295 246"><g filter="url(#filter0_d_307_26)"><path stroke="#757575" stroke-width="24" d="M51 113V54C50.6667 36.6667 49.083 15 30 15C17.5 15 16.5 26.5 16.5 37L16.5 44"/></g><g filter="url(#filter1_d_307_26)"><path stroke="#757575" stroke-width="24" d="M202.5 113V54C202.167 36.6667 200.583 15 181.5 15C169 15 168 26.5 168 37L168 44"/></g><path stroke="#757575" stroke-width="22" d="M126 3C113 49 82.8 137.6 66 124C43 104 52 98 50 92"/><path stroke="#757575" stroke-width="22" d="M277.5 3C264.5 49 234.3 137.6 217.5 124C194.5 104 203.5 98 201.5 92"/><path stroke="#757575" stroke-width="24" d="M51.1083 109.964L47.8917 212.036"/><path stroke="#757575" stroke-width="24" d="M202.81 109.971L199.19 212.029"/><path stroke="#757575" stroke-width="22" d="M134 210L52 109"/><path stroke="#757575" stroke-width="22" d="M285.5 210L203.5 109"/><line x1="88" x2="155" y1="238.5" y2="238.5" stroke="#757575" stroke-width="15"/><line x1="155" x2="222" y1="238.5" y2="238.5" stroke="#757575" stroke-width="15"/><defs><filter id="filter0_d_307_26" width="66.5" height="118" x=".5" y="3" color-interpolation-filters="sRGB" filterUnits="userSpaceOnUse"><feFlood flood-opacity="0" result="BackgroundImageFix"/><feColorMatrix in="SourceAlpha" result="hardAlpha" type="matrix" values="0 0 0 0 0 0 0 0 0 0 0 0 0 0 0 0 0 0 127 0"/><feOffset dy="4"/><feGaussianBlur stdDeviation="2"/><feComposite in2="hardAlpha" operator="out"/><feColorMatrix type="matrix" values="0 0 0 0 0 0 0 0 0 0 0 0 0 0 0 0 0 0 0.25 0"/><feBlend in2="BackgroundImageFix" mode="normal" result="effect1_dropShadow_307_26"/><feBlend in="SourceGraphic" in2="effect1_dropShadow_307_26" mode="normal" result="shape"/></filter><filter id="filter1_d_307_26" width="66.5" height="118" x="152" y="3" color-interpolation-filters="sRGB" filterUnits="userSpaceOnUse"><feFlood flood-opacity="0" result="BackgroundImageFix"/><feColorMatrix in="SourceAlpha" result="hardAlpha" type="matrix" values="0 0 0 0 0 0 0 0 0 0 0 0 0 0 0 0 0 0 127 0"/><feOffset dy="4"/><feGaussianBlur stdDeviation="2"/><feComposite in2="hardAlpha" operator="out"/><feColorMatrix type="matrix" values="0 0 0 0 0 0 0 0 0 0 0 0 0 0 0 0 0 0 0.25 0"/><feBlend in2="BackgroundImageFix" mode="normal" result="effect1_dropShadow_307_26"/><feBlend in="SourceGraphic" in2="effect1_dropShadow_307_26" mode="normal" result="shape"/></filter></defs></svg>