<svg xmlns="http://www.w3.org/2000/svg" width="910" height="910" fill="none"><g stroke="#d0d0d0"><g stroke-width="4"><circle cx="458.5" cy="455.5" r="282.5"/><circle cx="455" cy="455" r="319"/></g><circle cx="454.5" cy="455.5" r="375.5" stroke-width="5"/></g><ellipse rx="4.5" ry="4" transform="matrix(-1 0 0 1 457.5 455)" fill="#c4c4c4"/><g stroke="#d0d0d0" stroke-width="4"><path d="M197.612 540L460 175.842L722.388 540H197.612Z"/><path d="M286.651 619.5L458 238.747L629.349 619.5H286.651Z"/><path d="M384.98 499.75l73.52-201.1 73.52 201.1H384.98z"/><path d="M385.863 406.75L459 612.079L532.137 406.75H385.863Z"/><path d="M410.559 437.5L457.5 536.652L504.441 437.5H410.559Z"/><path d="M355.277 677L457.5 378.352L559.723 677H355.277Z"/><path d="M352.141 235L457.5 496.303L562.859 235H352.141Z"/><path d="M288.651 291.5L460 672.253L631.349 291.5H288.651Z"/><path d="M195.612 371L458 735.158L720.388 371H195.612Z"/><g stroke-linecap="round"><path d="M376.648 182c-3-5-4-16.6 16-23 25-8 33-1 44.5-7 9.2-4.8 17.833-14 21-18m83.352 50c3-5 4-16.6-16-23-25-8-33-1-44.5-7-9.2-4.8-17.833-14-21-18"/><path d="M540.933 182c3-5 4-16.6-16-23-25-8-33-1-44.5-7-9.2-4.8-17.834-14-21-18m-83.353 50c-3-5-4-16.6 16-23 25-8 33-1 44.5-7 9.2-4.8 17.834-14 21-18m87.288 48.907c.319-5.822 5.995-15.988 26.144-10.074 25.186 7.393 27.886 17.675 40.772 19.155 10.309 1.183 22.616-1.594 27.481-3.131m40.984 88.136c5.287-2.458 12.619-11.502-.353-28.015-16.215-20.642-26.764-19.331-32.922-30.747-4.927-9.133-6.917-21.591-7.297-26.679m-266.965-8.645c-.319-5.822-5.995-15.988-26.144-10.074-25.186 7.393-27.885 17.675-40.772 19.155-10.309 1.183-22.616-1.594-27.481-3.131m-40.984 88.136c-5.287-2.458-12.619-11.502.353-28.015 16.215-20.642 26.764-19.331 32.923-30.747 4.926-9.133 6.917-21.591 7.296-26.679m403.989 87.772c3.538-4.635 13.948-9.849 27.283 6.372 16.669 20.277 13.119 30.297 22.943 38.767 7.859 6.777 19.597 11.401 24.484 12.867m-15.676 95.926c5.755.941 16.904-2.415 15.464-23.364-1.8-26.187-11.26-31.036-9.933-43.939 1.063-10.322 6.423-21.743 8.97-26.164m-519.739-60.465c-3.538-4.635-13.948-9.849-27.283 6.372-16.669 20.277-13.119 30.297-22.943 38.767-7.858 6.777-19.597 11.401-24.484 12.867m15.676 95.926c-5.755.941-16.904-2.415-15.464-23.364 1.801-26.187 11.261-31.036 9.933-43.939-1.062-10.322-6.423-21.743-8.97-26.164m583.636 97.636c5.733-1.997 17.223-.036 17.326 23.789.128 29.782-9.05 36.783-6.754 51.096 1.837 11.451 8.09 23.438 10.986 28m-73.514 79.016c3.911 4.643 14.795 8.817 27.036-11.623 15.302-25.55 10.979-36.254 20.256-47.394 7.421-8.911 18.913-16.032 23.731-18.478M171.791 439.425c-5.732-1.997-17.223-.036-17.326 23.789-.128 29.782 9.051 36.783 6.754 51.096-1.837 11.451-8.09 23.438-10.986 28m73.514 79.016c-3.911 4.643-14.795 8.817-27.036-11.623-15.302-25.55-10.979-36.254-20.255-47.394-7.421-8.911-18.914-16.032-23.732-18.478m536.252 77.837c5.571 2.127 13.278 10.864-.467 28.797-17.18 22.417-28.307 21.864-34.844 34.051-5.23 9.749-7.372 22.693-7.789 27.946m-102.433 12.772c.317 5.955 6.273 15.968 27.555 8.38 26.603-9.486 29.486-20.247 43.089-22.735 10.883-1.991 23.861-.064 28.989 1.148m-414.471-90.359c-5.572 2.127-13.279 10.864.466 28.797 17.18 22.417 28.308 21.864 34.844 34.051 5.23 9.749 7.372 22.693 7.789 27.946m102.433 12.772c-.317 5.955-6.273 15.968-27.555 8.38-26.603-9.486-29.486-20.247-43.089-22.735-10.883-1.991-23.861-.064-28.989 1.148m265.434 17.442c2.966 4.724 3.886 15.639-16.158 21.511-25.055 7.34-33.006.698-44.547 6.256-9.233 4.447-17.93 13.035-21.124 16.773m-83.005-47.631c-3.034 4.68-4.114 15.581 15.841 21.746 24.944 7.707 32.992 1.183 44.451 6.91 9.166 4.581 17.736 13.296 20.875 17.081"/><path d="M377.642 729.469c-2.965 4.724-3.885 15.639 16.158 21.511 25.055 7.34 33.006.698 44.547 6.256 9.233 4.447 17.93 13.035 21.124 16.773m83.005-47.631c3.034 4.68 4.114 15.581-15.841 21.746-24.944 7.707-32.992 1.183-44.45 6.91-9.167 4.581-17.737 13.296-20.876 17.081M409.14 139.038c-2.715-5.907-2.3-20.519 21.08-31.711s28.266-23.938 27.787-28.912M508.861 139c2.713-5.846 2.298-20.308-21.064-31.385S459.552 83.923 460.031 79"/><path d="M508.86 138.623c2.715-5.907 2.3-20.519-21.08-31.711S459.514 82.974 459.993 78m-50.854 60.585c-2.713-5.846-2.298-20.308 21.064-31.385s28.245-23.692 27.766-28.615m311.334 436.586c6.416-.577 20.158 4.403 23.8 28.939s14.279 32.945 19.143 34.083m-72.676 26.593c4.738 4.281 18.586 8.467 36.072-9.032s30.916-17.909 35.445-15.927m-670.945-62.071c-6.416-.577-20.159 4.403-23.801 28.939s-14.279 32.945-19.142 34.083m72.676 26.593c-4.739 4.281-18.586 8.467-36.072-9.032s-30.916-17.909-35.445-15.927m592.523-349.998c3.151-5.412 14.942-12.894 36.903.471s34.785 10.585 38.451 7.524m-19.418 74.559c6.146-.884 17.354-8.974 13.019-34.251s2.908-36.078 7.071-38.319m-542.343-14.4c-3.151-5.411-14.943-12.893-36.904.472s-34.784 10.585-38.45 7.524m19.417 74.559c-6.145-.884-17.353-8.974-13.019-34.251s-2.907-36.078-7.07-38.319m454.167 501.319c4.249 4.507 8.419 17.834-8.894 35.094s-17.7 30.27-15.728 34.617m-64.044-39.184c-.596 6.111 4.266 19.05 28.481 21.913s32.477 12.768 33.581 17.362m-261.358-63.808c-4.029 4.728-7.429 18.272 11.207 34.626s19.839 29.343 18.11 33.793m62.523-42.529c.985 6.079-3.14 19.271-27.526 23.4s-32.148 14.464-32.982 19.116M511.41 137.867c-.674-6.466 4.413-20.17 30.148-23.259s34.457-13.591 35.601-18.455m28.7 73.709c4.447-4.665 8.699-18.494-9.867-36.488s-19.138-31.509-17.103-36.017"/><path d="M408.034 135.452c.674-6.466-4.412-20.17-30.148-23.259s-34.457-13.591-35.601-18.455m-28.699 73.709c-4.447-4.665-8.699-18.494 9.867-36.488s19.138-31.509 17.103-36.017M738.86 607.505c6.349 1.399 17.75 10.547 12.568 35.944s2.034 36.984 6.289 39.604m-78.998 3.996c3.025 5.691 14.808 14.086 37.738 2.141s35.936-8.228 39.573-4.876m-582.488-74.281c-6.247 1.535-17.664 10.662-13.361 34.896s-3.098 35.579-7.335 38.222m77.084 1.468c-3.127 5.556-14.894 13.972-36.944 3.187s-34.874-6.823-38.529-3.494m591.845-367.15c4.976-4.183 19.176-7.654 36.162 11.924s30.572 20.913 35.242 19.134m-44.946 65.088c6.356 1.067 20.191-3.165 24.682-28.626s15.362-33.513 20.236-34.356m-652.535-35.58c-4.977-4.182-19.176-7.653-36.163 11.925s-30.571 20.913-35.241 19.133m44.946 65.089c-6.356 1.067-20.191-3.165-24.682-28.626s-15.362-33.513-20.236-34.356M510.053 773.77c2.581 5.967 1.837 20.565-21.789 31.228s-28.798 23.295-28.431 28.279m-49.476-61.715c-2.844 5.783-2.755 20.25 20.351 31.851s27.704 24.322 27.115 29.233m149.891-660.144c1.414-6.345 10.589-17.724 35.973-12.481s36.99-1.946 39.619-6.195m3.808 79.007c5.698-3.011 14.121-14.774 2.23-37.732s-8.142-35.955-4.781-39.584m-375.832 11.57c-1.414-6.345-10.589-17.724-35.974-12.482s-36.989-1.945-39.619-6.194m-3.807 79.007c-5.698-3.011-14.121-14.774-2.231-37.732s8.142-35.955 4.781-39.584m446.475 538.075c5.353 3.495 13.293 15.767 2.232 36.892s-7.498 34.131-4.334 37.993m-72.008-24.149c1.284 6.205 9.756 17.931 33.377 15.195s34.372 5.194 36.796 9.501m-441.281-76.985c-5.509 3.389-13.425 15.677-1.022 37.72s9.121 35.241 5.929 39.084m74.927-22.152c-1.128 6.311-9.624 18.02-34.586 14.367s-35.994 4.085-38.39 8.411m535.855-349.278c6.047-2.386 20.614-1.168 30.504 22.791s22.348 29.539 27.341 29.334m-63.289 47.447c5.688 3.03 20.151 3.411 32.495-19.307s25.209-26.899 30.099-26.151m-697.407-54.529c-6.047-2.386-20.614-1.168-30.504 22.791s-22.348 29.539-27.341 29.334m63.288 47.447c-5.688 3.03-20.15 3.411-32.495-19.307s-25.209-26.899-30.098-26.151M74.5 75h231V39.5H217v-35h236.5m2.5 0h231V40h-88.5v35H835m.171.364v231h35.5v-88.5h35v236.5m0 2.5v231h-35.5v-88.5h-35v236.5m-760.5-760.5v231h-35.5v-88.5h-35v236.5m0 2.5v231h35.5v-88.5h35v236.5"/><path d="M74.5 835.5h231V871H217v35h236.5m2.5 0h231v-35.5h-88.5v-35H835"/></g></g></svg>